# xmcd
#
# Track frame offsets: 
#        150
#        17895
#        31501
#        51867
#        59898
#        69109
#        81851
#        97228
#        108078
#        158049
#
# Disc length: 2564 seconds
#
# Revision: 0
# Processed by: cddbd v1.5.2PL0 Copyright (c) Steve Scherf et al.
# Submitted via: ExactAudioCopy v0.99pb5
#
DISCID=7a0a020a
DTITLE=Canned Heat - In Concert
DYEAR=1900
DGENRE=Blues
TTITLE0=Let's Work Together
TTITLE1=Louise
TTITLE2=On The Road Again
TTITLE3=Pretty Thing
TTITLE4=Rolling And Tumbling
TTITLE5=Same All Over
TTITLE6=So Long
TTITLE7=Spoonful
TTITLE8=Sweet Sixteen
TTITLE9=Wish You Could
EXTD=
EXTT0=
EXTT1=
EXTT2=
EXTT3=
EXTT4=
EXTT5=
EXTT6=
EXTT7=
EXTT8=
EXTT9=
PLAYORDER=
